<?xml version="1.0" standalone="no"?><!DOCTYPE svg PUBLIC "-//W3C//DTD SVG 1.1//EN" "http://www.w3.org/Graphics/SVG/1.1/DTD/svg11.dtd"><svg t="1617887713468" class="icon" viewBox="0 0 1024 1024" version="1.1" xmlns="http://www.w3.org/2000/svg" p-id="6155" xmlns:xlink="http://www.w3.org/1999/xlink" width="48" height="48"><defs><style type="text/css"></style></defs><path d="M155.818667 354.986667S76.288 126.122667 287.061333 37.034667a465.237333 465.237333 0 0 1 388.778667 11.605333s122.368-8.533333 177.493333 63.317333c65.194667 85.333333 12.970667 256 12.970667 256z" fill="#6C7AE5" p-id="6156"></path><path d="M598.186667 682.666667l-85.333334 1.024-85.333333-1.024s17.066667 79.36-37.376 100.522666c0 0 6.997333 74.410667 121.685333 74.410667s122.709333-74.410667 122.709334-74.410667C580.266667 762.538667 598.186667 682.666667 598.186667 682.666667z" fill="#FFEDE1" p-id="6157"></path><path d="M518.485333 758.101333a182.784 182.784 0 0 0 80.725334-17.066666 139.946667 139.946667 0 0 1-1.024-58.368l-85.333334 1.024-85.333333-1.024a136.533333 136.533333 0 0 1-1.536 59.733333 197.461333 197.461333 0 0 0 92.501333 15.701333z" fill="#FFCFAE" p-id="6158"></path><path d="M98.986667 439.978667a112.469333 108.885333 0 1 0 224.938666 0 112.469333 108.885333 0 1 0-224.938666 0Z" fill="#FFEDE1" p-id="6159"></path><path d="M708.096 439.978667a109.909333 108.885333 0 1 0 219.818667 0 109.909333 108.885333 0 1 0-219.818667 0Z" fill="#FFEDE1" p-id="6160"></path><path d="M153.429333 439.978667a46.933333 45.397333 0 1 0 93.866667 0 46.933333 45.397333 0 1 0-93.866667 0Z" fill="#FFCFAE" p-id="6161"></path><path d="M779.605333 439.978667a46.933333 45.397333 0 1 0 93.866667 0 46.933333 45.397333 0 1 0-93.866667 0Z" fill="#FFCFAE" p-id="6162"></path><path d="M227.328 274.602667s-85.333333 170.666667-21.162667 309.418666c86.528 189.269333 529.066667 190.293333 617.301334-5.802666 61.269333-136.533333-32.256-305.493333-32.256-305.493334z" fill="#FFEDE1" p-id="6163"></path><path d="M398.677333 443.733333l20.821334-18.944a34.133333 34.133333 0 0 0-28.16-15.36 36.693333 36.693333 0 1 0 34.133333 40.106667zM595.114667 457.045333a8.533333 8.533333 0 0 1-6.314667-14.165333 72.021333 72.021333 0 0 1 78.506667-17.066667 8.533333 8.533333 0 1 1-5.802667 16.042667 55.296 55.296 0 0 0-59.904 11.605333 8.533333 8.533333 0 0 1-6.485333 3.584z" fill="#302B28" p-id="6164"></path><path d="M487.936 530.261333a25.429333 15.36 0 1 0 50.858667 0 25.429333 15.36 0 1 0-50.858667 0Z" fill="#FFCFAE" p-id="6165"></path><path d="M734.890667 546.133333a8.533333 8.533333 0 0 1-7.509334-4.608l-8.533333-17.066666a8.533333 8.533333 0 1 1 15.189333-7.850667l8.533334 17.066667a8.533333 8.533333 0 0 1-3.754667 11.434666 8.362667 8.362667 0 0 1-3.925333 1.024zM779.776 546.133333a8.533333 8.533333 0 0 1-7.509333-4.608l-8.533334-17.066666a8.533333 8.533333 0 1 1 15.189334-7.850667l8.533333 17.066667a8.533333 8.533333 0 0 1-3.754667 11.434666 8.362667 8.362667 0 0 1-3.925333 1.024zM292.010667 546.133333a8.362667 8.362667 0 0 1-3.925334-1.024 8.533333 8.533333 0 0 1-3.754666-11.434666l8.533333-17.066667a8.533333 8.533333 0 1 1 15.189333 7.850667l-8.533333 17.066666a8.533333 8.533333 0 0 1-7.509333 4.608zM247.125333 546.133333a8.362667 8.362667 0 0 1-3.925333-1.024 8.533333 8.533333 0 0 1-3.754667-11.434666l8.533334-17.066667a8.533333 8.533333 0 1 1 15.189333 7.850667l-8.533333 17.066666a8.533333 8.533333 0 0 1-7.509334 4.608z" fill="#FF4545" p-id="6166"></path><path d="M779.264 938.666667l-25.088-69.632A132.778667 132.778667 0 0 0 631.466667 781.312c-4.437333 38.912-55.808 69.802667-119.466667 69.802667s-114.346667-30.72-119.466667-69.802667a132.778667 132.778667 0 0 0-119.466666 87.552L247.637333 938.666667a32.768 32.768 0 0 0 13.653334 39.082666c30.72 18.773333 101.034667 46.250667 252.074666 46.250667s221.866667-27.477333 252.074667-46.592a32.768 32.768 0 0 0 13.824-38.741333z" fill="#8DD9FF" p-id="6167"></path><path d="M483.157333 580.266667a7.850667 7.850667 0 0 0-7.850666 8.192c2.048 37.888 17.066667 67.242667 36.693333 67.242666s34.133333-29.525333 36.693333-67.242666a7.850667 7.850667 0 0 0-7.850666-8.192z" fill="#FF4545" p-id="6168"></path><path d="M496.981333 637.098667a15.018667 12.117333 0 1 0 30.037334 0 15.018667 12.117333 0 1 0-30.037334 0Z" fill="#FF9999" p-id="6169"></path><path d="M225.962667 274.602667a130.048 130.048 0 0 1 111.957333-44.202667c72.192 6.314667 96.085333 42.666667 169.642667 42.666667s98.133333-44.373333 163.157333-46.933334a145.749333 145.749333 0 0 1 119.466667 46.592 943.616 943.616 0 0 1-276.48 43.008 1122.645333 1122.645333 0 0 1-287.744-41.130666z" fill="#FFEDE1" p-id="6170"></path></svg>