<?xml version="1.0" standalone="no"?><!DOCTYPE svg PUBLIC "-//W3C//DTD SVG 1.1//EN" "http://www.w3.org/Graphics/SVG/1.1/DTD/svg11.dtd"><svg t="1617887689528" class="icon" viewBox="0 0 1024 1024" version="1.1" xmlns="http://www.w3.org/2000/svg" p-id="4710" xmlns:xlink="http://www.w3.org/1999/xlink" width="48" height="48"><defs><style type="text/css"></style></defs><path d="M597.329664 682.681343l-85.329664 1.023956-85.329664-1.023956s17.065933 79.356588-37.374393 100.518345c0 0 6.997032 74.407467 121.680101 74.407467s122.704057-74.407467 122.704057-74.407467C579.410435 762.549909 597.329664 682.681343 597.329664 682.681343z" fill="#FFEDE1" p-id="4711"></path><path d="M516.949121 758.112766a182.776141 182.776141 0 0 0 80.721862-17.065932A139.940649 139.940649 0 0 1 597.329664 682.681343l-85.329664 1.023956-85.329664-1.023956a136.527463 136.527463 0 0 1-1.535934 59.730765 197.452843 197.452843 0 0 0 91.814719 15.700658z" fill="#FFCFAE" p-id="4712"></path><path d="M145.765081 361.671147S139.450686 162.511711 243.552877 67.113146 513.194615 8.918315 513.194615 8.918315s156.665263-35.155822 249.503938 34.131866c139.76999 104.614168 119.46153 318.962285 119.46153 318.962284z" fill="#42DB92" p-id="4713"></path><path d="M97.639151 440.003779a112.464497 108.880651 0 1 0 224.928995 0 112.464497 108.880651 0 1 0-224.928995 0Z" fill="#FFEDE1" p-id="4714"></path><path d="M706.722294 440.003779a109.904607 108.880651 0 1 0 219.809214 0 109.904607 108.880651 0 1 0-219.809214 0Z" fill="#FFEDE1" p-id="4715"></path><path d="M152.079477 440.003779a46.931315 45.395381 0 1 0 93.86263 0 46.931315 45.395381 0 1 0-93.86263 0Z" fill="#FFCFAE" p-id="4716"></path><path d="M778.057893 440.003779a46.931315 45.395381 0 1 0 93.86263 0 46.931315 45.395381 0 1 0-93.86263 0Z" fill="#FFCFAE" p-id="4717"></path><path d="M225.974966 274.634889S140.98662 443.758284 204.813209 584.040252c86.524279 189.261195 529.043918 190.285151 617.274791-5.802418 61.266699-136.527463-32.254613-305.480198-32.254614-305.480197z" fill="#FFEDE1" p-id="4718"></path><path d="M486.57176 530.282563a25.42824 15.35934 0 1 0 50.85648 0 25.42824 15.35934 0 1 0-50.85648 0Z" fill="#FFCFAE" p-id="4719"></path><path d="M733.857127 546.153881a8.532966 8.532966 0 0 1-7.509011-4.607802l-8.532966-17.065933a8.532966 8.532966 0 1 1 15.18868-7.850329l8.532967 17.065933a8.532966 8.532966 0 0 1-3.754506 11.434175 8.362307 8.362307 0 0 1-3.925164 1.023956zM778.399212 546.153881a8.532966 8.532966 0 0 1-7.509011-4.607802l-8.532966-17.065933a8.532966 8.532966 0 1 1 15.18868-7.850329l8.532966 17.065933a8.532966 8.532966 0 0 1-3.754505 11.434175 8.362307 8.362307 0 0 1-3.925164 1.023956zM290.142873 546.153881a8.362307 8.362307 0 0 1-3.925164-1.023956 8.532966 8.532966 0 0 1-3.754506-11.434175l8.532967-17.065933a8.532966 8.532966 0 1 1 15.18868 7.850329l-8.532966 17.065933A8.532966 8.532966 0 0 1 290.142873 546.153881zM245.600788 546.153881a8.362307 8.362307 0 0 1-3.925164-1.023956 8.532966 8.532966 0 0 1-3.754505-11.434175l8.532966-17.065933a8.532966 8.532966 0 1 1 15.18868 7.850329l-8.532966 17.065933a8.532966 8.532966 0 0 1-7.509011 4.607802z" fill="#FF4545" p-id="4720"></path><path d="M777.887234 938.670336l-25.086922-69.629006A132.772957 132.772957 0 0 0 631.46153 781.322435c-4.437143 38.910327-55.8056 69.799665-119.46153 69.799665s-114.34175-30.718679-119.46153-69.799665a132.772957 132.772957 0 0 0-122.02142 87.548236L246.112766 938.670336a32.766591 32.766591 0 0 0 13.652747 39.080986C290.142873 996.523848 360.966494 1024 512 1024s221.857127-27.476152 252.063828-46.589997a32.766591 32.766591 0 0 0 13.823406-38.739667z" fill="#BBE589" p-id="4721"></path><path d="M456.877037 587.794757c10.0689-11.263516 25.598899 2.218571 53.41637 2.218571s35.838459-20.820438 52.904391-8.703626-4.607802 57.170875-52.904391 59.048128c-45.224722 1.877253-72.871533-31.059998-53.41637-52.563073z" fill="#FF4545" p-id="4722"></path><path d="M483.145669 627.120336a9.727582 25.257581 87.7 1 0 50.474466-2.027264 9.727582 25.257581 87.7 1 0-50.474466 2.027264Z" fill="#FF9999" p-id="4723"></path><path d="M199.181451 293.407415s-5.631758 100.518344 94.03329 104.614169c94.03329 3.754505 116.730981-65.362523 116.730981-65.362523s18.431207 68.263731 119.461529 63.997248C623.611201 392.560485 631.46153 322.590161 631.46153 322.590161s8.532966 68.263731 99.323729 67.410434 93.862631-89.425488 93.86263-89.425488-67.239775-117.584277-309.74668-117.584277c-251.55185-0.170659-315.719757 110.416585-315.719758 110.416585z" fill="#42DB92" p-id="4724"></path><path d="M643.237023 443.758284l20.820439-18.943186a34.131866 34.131866 0 0 0-28.15879-15.359339 36.691756 36.691756 0 1 0 34.131866 40.104942zM398.682206 443.758284l20.820438-18.943186a34.131866 34.131866 0 0 0-28.158789-15.359339 36.691756 36.691756 0 1 0 34.131866 40.104942z" fill="#302B28" p-id="4725"></path></svg>