<?xml version="1.0" standalone="no"?><!DOCTYPE svg PUBLIC "-//W3C//DTD SVG 1.1//EN" "http://www.w3.org/Graphics/SVG/1.1/DTD/svg11.dtd"><svg t="1617887697965" class="icon" viewBox="0 0 1024 1024" version="1.1" xmlns="http://www.w3.org/2000/svg" p-id="5039" xmlns:xlink="http://www.w3.org/1999/xlink" width="48" height="48"><defs><style type="text/css"></style></defs><path d="M153.6 352.938667S109.909333 115.029333 322.901333 31.744c201.898667-79.189333 351.573333 15.018667 351.573334 15.018667s93.525333-2.901333 148.821333 69.12c65.194667 85.333333 41.301333 251.050667 41.301333 251.050666z" fill="#FFD073" p-id="5040"></path><path d="M597.333333 682.666667l-85.333333 1.024-85.333333-1.024s17.066667 79.36-37.376 100.522666c0 0 6.997333 74.410667 121.685333 74.410667s122.709333-74.410667 122.709333-74.410667C579.413333 762.538667 597.333333 682.666667 597.333333 682.666667z" fill="#FFEDE1" p-id="5041"></path><path d="M516.949333 758.101333a182.784 182.784 0 0 0 80.725334-17.066666A139.946667 139.946667 0 0 1 597.333333 682.666667l-85.333333 1.024-85.333333-1.024a136.533333 136.533333 0 0 1-1.536 59.733333 197.461333 197.461333 0 0 0 91.818666 15.701333z" fill="#FFCFAE" p-id="5042"></path><path d="M97.621333 439.978667a112.469333 108.885333 0 1 0 224.938667 0 112.469333 108.885333 0 1 0-224.938667 0Z" fill="#FFEDE1" p-id="5043"></path><path d="M706.730667 439.978667a109.909333 108.885333 0 1 0 219.818666 0 109.909333 108.885333 0 1 0-219.818666 0Z" fill="#FFEDE1" p-id="5044"></path><path d="M152.064 439.978667a46.933333 45.397333 0 1 0 93.866667 0 46.933333 45.397333 0 1 0-93.866667 0Z" fill="#FFCFAE" p-id="5045"></path><path d="M778.069333 439.978667a46.933333 45.397333 0 1 0 93.866667 0 46.933333 45.397333 0 1 0-93.866667 0Z" fill="#FFCFAE" p-id="5046"></path><path d="M225.962667 274.602667S140.970667 443.733333 204.8 584.021333c86.528 189.269333 529.066667 190.293333 617.301333-5.802666 61.269333-136.533333-32.256-305.493333-32.256-305.493334z" fill="#FFEDE1" p-id="5047"></path><path d="M397.141333 443.733333l20.821334-18.944a34.133333 34.133333 0 0 0-28.16-15.36 36.693333 36.693333 0 1 0 34.133333 40.106667zM593.749333 457.045333a8.533333 8.533333 0 0 1-6.314666-14.165333A72.021333 72.021333 0 0 1 665.6 426.666667a8.533333 8.533333 0 1 1-5.802667 16.042666 55.296 55.296 0 0 0-59.904 11.605334 8.533333 8.533333 0 0 1-6.144 2.730666z" fill="#302B28" p-id="5048"></path><path d="M486.570667 530.261333a25.429333 15.36 0 1 0 50.858666 0 25.429333 15.36 0 1 0-50.858666 0Z" fill="#FFCFAE" p-id="5049"></path><path d="M733.866667 546.133333a8.533333 8.533333 0 0 1-7.509334-4.608l-8.533333-17.066666a8.533333 8.533333 0 1 1 15.189333-7.850667l8.533334 17.066667a8.533333 8.533333 0 0 1-3.754667 11.434666 8.362667 8.362667 0 0 1-3.925333 1.024zM778.410667 546.133333a8.533333 8.533333 0 0 1-7.509334-4.608l-8.533333-17.066666a8.533333 8.533333 0 1 1 15.189333-7.850667l8.533334 17.066667a8.533333 8.533333 0 0 1-3.754667 11.434666 8.362667 8.362667 0 0 1-3.925333 1.024zM290.133333 546.133333a8.362667 8.362667 0 0 1-3.925333-1.024 8.533333 8.533333 0 0 1-3.754667-11.434666l8.533334-17.066667a8.533333 8.533333 0 0 1 15.189333 7.850667l-8.533333 17.066666A8.533333 8.533333 0 0 1 290.133333 546.133333zM245.589333 546.133333a8.362667 8.362667 0 0 1-3.925333-1.024 8.533333 8.533333 0 0 1-3.754667-11.434666l8.533334-17.066667a8.533333 8.533333 0 0 1 15.189333 7.850667l-8.533333 17.066666a8.533333 8.533333 0 0 1-7.509334 4.608z" fill="#FF4545" p-id="5050"></path><path d="M777.898667 938.666667l-25.088-69.632A132.778667 132.778667 0 0 0 631.466667 781.312c-4.437333 38.912-55.808 69.802667-119.466667 69.802667s-114.346667-30.72-119.466667-69.802667a132.778667 132.778667 0 0 0-122.026666 87.552L246.101333 938.666667a32.768 32.768 0 0 0 13.653334 39.082666C290.133333 996.522667 360.96 1024 512 1024s221.866667-27.477333 252.074667-46.592a32.768 32.768 0 0 0 13.824-38.741333z" fill="#FF7752" p-id="5051"></path><path d="M481.621333 580.266667a7.850667 7.850667 0 0 0-7.850666 8.192c2.048 37.888 17.066667 67.242667 36.693333 67.242666s34.133333-29.525333 36.693333-67.242666a7.850667 7.850667 0 0 0-7.850666-8.192z" fill="#FF4545" p-id="5052"></path><path d="M495.616 637.098667a15.018667 12.117333 0 1 0 30.037333 0 15.018667 12.117333 0 1 0-30.037333 0Z" fill="#FF9999" p-id="5053"></path><path d="M199.168 329.898667l55.978667 6.997333a2059.776 2059.776 0 0 0 414.378666 10.069333h2.730667L690.346667 290.133333l33.109333 51.2h4.949333l37.888-4.096 58.88-7.338666s51.2-137.898667-293.034666-137.898667-332.970667 137.898667-332.970667 137.898667z" fill="#FFD073" p-id="5054"></path></svg>