<?xml version="1.0" standalone="no"?><!DOCTYPE svg PUBLIC "-//W3C//DTD SVG 1.1//EN" "http://www.w3.org/Graphics/SVG/1.1/DTD/svg11.dtd"><svg t="1617887680044" class="icon" viewBox="0 0 1024 1024" version="1.1" xmlns="http://www.w3.org/2000/svg" p-id="4380" xmlns:xlink="http://www.w3.org/1999/xlink" width="48" height="48"><defs><style type="text/css"></style></defs><path d="M598.182961 682.681343l-85.329664 1.023956-85.329665-1.023956s17.065933 79.356588-37.374392 100.518345c0 0 6.997032 74.407467 121.680101 74.407467s122.704057-74.407467 122.704057-74.407467C580.263731 762.549909 598.182961 682.681343 598.182961 682.681343z" fill="#FFEDE1" p-id="4381"></path><path d="M518.485054 758.112766a182.776141 182.776141 0 0 0 80.721863-17.065932 139.940649 139.940649 0 0 1-1.023956-58.365491l-85.329664 1.023956-85.329665-1.023956a136.527463 136.527463 0 0 1-1.535933 59.730765 197.452843 197.452843 0 0 0 92.497355 15.700658z" fill="#FFCFAE" p-id="4382"></path><path d="M147.130356 361.671147S140.815961 162.511711 245.088811 67.113146 514.55989 8.918315 514.55989 8.918315s156.665263-35.155822 249.503938 34.131866c139.76999 104.614168 119.46153 318.962285 119.46153 318.962284z" fill="#42DB92" p-id="4383"></path><path d="M99.004425 440.003779a112.464497 108.880651 0 1 0 224.928995 0 112.464497 108.880651 0 1 0-224.928995 0Z" fill="#FFEDE1" p-id="4384"></path><path d="M708.087568 440.003779a109.904607 108.880651 0 1 0 219.809215 0 109.904607 108.880651 0 1 0-219.809215 0Z" fill="#FFEDE1" p-id="4385"></path><path d="M153.444751 440.003779a46.931315 45.395381 0 1 0 93.862631 0 46.931315 45.395381 0 1 0-93.862631 0Z" fill="#FFCFAE" p-id="4386"></path><path d="M779.593827 440.003779a46.931315 45.395381 0 1 0 93.86263 0 46.931315 45.395381 0 1 0-93.86263 0Z" fill="#FFCFAE" p-id="4387"></path><path d="M227.34024 274.634889s-85.329664 170.659328-21.161756 309.405363c86.524279 189.261195 529.043918 190.285151 617.27479-5.802418 61.266699-136.527463-32.254613-305.480198-32.254613-305.480197z" fill="#FFEDE1" p-id="4388"></path><path d="M643.237023 443.758284l20.820439-18.943186a34.131866 34.131866 0 0 0-28.15879-15.359339 36.691756 36.691756 0 1 0 34.131866 40.104942zM398.682206 443.758284l20.820438-18.943186a34.131866 34.131866 0 0 0-28.158789-15.359339 36.691756 36.691756 0 1 0 34.131866 40.104942z" fill="#302B28" p-id="4389"></path><path d="M487.937035 530.282563a25.42824 15.35934 0 1 0 50.85648 0 25.42824 15.35934 0 1 0-50.85648 0Z" fill="#FFCFAE" p-id="4390"></path><path d="M486.57176 612.711019a30.889338 26.793515 90 1 0 53.587029 0 30.889338 26.793515 90 1 0-53.587029 0Z" fill="#FF4545" p-id="4391"></path><path d="M734.881083 546.153881a8.532966 8.532966 0 0 1-7.509011-4.607802l-8.532966-17.065933a8.532966 8.532966 0 1 1 15.18868-7.850329l8.532967 17.065933a8.532966 8.532966 0 0 1-3.754506 11.434175 8.362307 8.362307 0 0 1-3.925164 1.023956zM779.764486 546.153881a8.532966 8.532966 0 0 1-7.50901-4.607802l-8.532967-17.065933a8.532966 8.532966 0 1 1 15.18868-7.850329l8.532967 17.065933a8.532966 8.532966 0 0 1-3.754505 11.434175 8.362307 8.362307 0 0 1-3.925165 1.023956zM291.849466 546.153881a8.362307 8.362307 0 0 1-3.925164-1.023956 8.532966 8.532966 0 0 1-3.754505-11.434175l8.532966-17.065933a8.532966 8.532966 0 0 1 15.18868 7.850329l-8.532966 17.065933a8.532966 8.532966 0 0 1-7.509011 4.607802zM247.136722 546.153881a8.362307 8.362307 0 0 1-3.925164-1.023956 8.532966 8.532966 0 0 1-3.754505-11.434175l8.532966-17.065933a8.532966 8.532966 0 0 1 15.18868 7.850329l-8.532966 17.065933a8.532966 8.532966 0 0 1-7.509011 4.607802z" fill="#FF4545" p-id="4392"></path><path d="M779.252508 938.670336l-25.086921-69.629006A132.772957 132.772957 0 0 0 631.46153 781.322435c-4.437143 38.910327-55.8056 69.799665-119.46153 69.799665s-114.34175-30.718679-119.46153-69.799665a132.772957 132.772957 0 0 0-119.46153 87.548236L247.6487 938.670336a32.766591 32.766591 0 0 0 13.652747 39.080986c30.718679 18.772526 101.030322 46.248678 252.063828 46.248678s221.857127-27.476152 252.063828-46.589997a32.766591 32.766591 0 0 0 13.823405-38.739667z" fill="#BBE589" p-id="4393"></path><path d="M498.347254 627.387721a15.018021 11.946153 0 1 0 30.036042 0 15.018021 11.946153 0 1 0-30.036042 0Z" fill="#FF9999" p-id="4394"></path><path d="M200.546726 329.928512l55.97626 6.997032a2059.687433 2059.687433 0 0 0 414.360849 10.068901h2.730549L691.704273 290.164888l33.107909 51.197799h4.949121l38.227689-4.095824 58.877469-7.338351s51.197798-137.892737-293.022067-137.892738-333.297668 137.892737-333.297668 137.892738z" fill="#42DB92" p-id="4395"></path></svg>